<svg width="270" height="32" viewBox="0 0 270 32" fill="none" xmlns="http://www.w3.org/2000/svg">
<path d="M94.4124 28.516C91.4879 28.516 89.0995 28.1748 87.1499 27.4924C85.2489 26.81 83.7867 25.8839 82.8606 24.7141C81.9345 23.5443 81.3984 22.277 81.3496 20.8635H86.8087C86.8574 21.5946 87.1011 22.277 87.5886 22.8132C88.076 23.3981 88.8558 23.8368 89.9769 24.1292C91.0979 24.4704 92.5602 24.6166 94.4124 24.6166C96.7032 24.6166 98.4092 24.3729 99.4815 23.9342C100.554 23.4956 101.09 22.8132 101.09 21.8871V21.8383C101.09 21.3022 100.944 20.9123 100.7 20.5711C100.456 20.2786 99.8714 19.9862 98.9941 19.7425C98.1167 19.4987 96.8007 19.255 94.9973 19.0601C94.8023 19.0113 94.5586 19.0113 94.3149 18.9626C94.0712 18.9138 93.8275 18.9138 93.5838 18.9138C93.4375 18.9138 93.2913 18.8651 93.1938 18.8651C93.0476 18.8651 92.9501 18.8651 92.8039 18.8164C89.9769 18.5239 87.7835 18.0365 86.2725 17.4029C84.7128 16.7692 83.6892 16.0381 83.1043 15.1607C82.5194 14.2834 82.2757 13.2598 82.2757 12.0413V12.09C82.2757 10.9202 82.6656 9.84789 83.4455 8.9218C84.2254 7.9957 85.4439 7.26459 87.1986 6.67969C88.9046 6.09479 91.1467 5.85107 93.8762 5.85107C97.873 5.85107 100.895 6.53346 102.942 7.89823C104.989 9.263 106.11 11.1152 106.354 13.4548H101.09C100.895 12.3337 100.31 11.4076 99.2378 10.7252C98.1655 10.0429 96.5083 9.70167 94.1687 9.70167C92.7064 9.70167 91.5366 9.79915 90.6105 10.0429C89.7332 10.2378 89.0508 10.5303 88.6609 10.9202C88.2709 11.3101 88.076 11.7488 88.076 12.2362C88.076 12.6749 88.1734 13.0648 88.4172 13.406C88.6121 13.7472 89.0995 13.9909 89.8307 14.2834C90.5618 14.5271 91.6341 14.7708 93.0964 14.917C93.2913 14.917 93.4863 14.9658 93.6813 14.9658C93.8762 15.0145 94.0712 15.0145 94.2661 15.0145C97.8243 15.3557 100.554 15.8431 102.406 16.4768C104.258 17.1104 105.477 17.8903 106.062 18.7189C106.647 19.5475 106.939 20.5223 106.939 21.6921C106.939 23.2031 106.452 24.4704 105.525 25.4452C104.599 26.4688 103.186 27.1999 101.382 27.6873C99.3353 28.2722 97.0932 28.516 94.4124 28.516Z" fill="#00BCD4"/>
<path d="M110.984 27.9799V6.43604H116.59V27.9799H110.984Z" fill="#00BCD4"/>
<path d="M122.683 27.9799V6.43604H128.288V23.983H143.836V28.0286H122.683V27.9799Z" fill="#00BCD4"/>
<path d="M147.833 27.9799V6.43604H153.438V15.0146H158.995L166.062 6.43604H172.789L163.723 16.9642V17.1105L174.007 28.0286H167.33L158.995 19.0601H153.487V28.0286H147.833V27.9799Z" fill="#00BCD4"/>
<path d="M182.976 27.9799L174.544 6.43604H180.49L186.437 23.0569L186.632 23.7881H186.681L186.924 23.0569L192.92 6.48476H198.671L204.666 23.0569L204.91 23.7881H204.959L205.154 23.0569L211.1 6.43604H217.047L208.614 27.9799H201.693L195.99 11.7976L195.844 11.3102H195.795L195.649 11.7976L189.946 27.9311H182.976V27.9799Z" fill="white"/>
<path d="M214.901 27.9799L226.404 6.43604H233.911L245.511 27.9799H239.223L230.45 10.2379L230.206 9.75047H230.158L229.963 10.2379L221.189 27.9799H214.901ZM221.53 23.2519L222.261 19.5476H237.761L238.736 23.2519H221.53Z" fill="white"/>
<path d="M252.287 27.9799V21.5947L240.15 6.43604H247.072L254.724 16.7205L255.065 17.3054L255.455 16.7205L263.059 6.43604H269.98L257.892 21.5947V27.9799H252.287Z" fill="white"/>
<path d="M35.8248 1.61041L33.6314 6.77704C33.4364 7.21571 33.0465 7.50816 32.5591 7.50816H8.67566C8.04202 7.50816 7.50586 6.97201 7.50586 6.33836V1.17174C7.50586 0.538099 8.04202 0.0019431 8.67566 0.0019431H34.7525C35.5811 -0.0467986 36.166 0.830546 35.8248 1.61041Z" fill="white"/>
<path d="M63.7054 2.53651V30.4655C63.7054 31.4891 62.5356 32.0252 61.7557 31.3428L46.2071 17.6464C45.7684 17.2565 45.086 17.2565 44.6474 17.6464L36.5075 24.8115L29.0988 31.3428C28.8551 31.5378 28.9038 31.6353 28.3189 31.6353H1.7547C0.926091 31.6353 0.341192 30.7579 0.682384 30.0268L2.87576 24.8602C3.07073 24.4215 3.46066 24.1291 3.94807 24.1291H27.8315C28.4651 24.1291 29.0013 23.5929 29.0013 22.9593V20.1323C29.0013 19.3524 28.3677 18.7187 27.5878 18.7187H3.5094C1.55973 18.7187 0 17.159 0 15.2094V12.626C0 11.8462 0.633642 11.2125 1.41351 11.2125H32.9981C34.9478 11.2125 36.5075 12.7723 36.5075 14.7219C36.5562 14.7219 36.5563 14.6732 36.605 14.6732L44.6474 7.5569C45.086 7.16697 45.7684 7.16697 46.2071 7.5569L54.2007 14.6732C54.9806 15.3556 56.1504 14.8194 56.1504 13.7958V2.78022C56.1504 2.00035 56.784 1.3667 57.5639 1.3667H62.4868C63.1692 1.3667 63.7054 1.90287 63.7054 2.53651Z" fill="white"/>
</svg>
